<?xml version="1.0" encoding="UTF-8" standalone="no"?>
<svg
   enable-background="new 0 0 512 512"
   id="Layer_1"
   version="1.1"
   viewBox="0 0 64 64"
   xml:space="preserve"
   sodipodi:docname="github.svg"
   width="64"
   height="64"
   inkscape:version="1.2 (1:1.2.1+202207142221+cd75a1ee6d)"
   xmlns:inkscape="http://www.inkscape.org/namespaces/inkscape"
   xmlns:sodipodi="http://sodipodi.sourceforge.net/DTD/sodipodi-0.dtd"
   xmlns="http://www.w3.org/2000/svg"
   xmlns:svg="http://www.w3.org/2000/svg"><defs
     id="defs3912" /><sodipodi:namedview
     id="namedview3910"
     pagecolor="#ffffff"
     bordercolor="#666666"
     borderopacity="1.0"
     inkscape:showpageshadow="2"
     inkscape:pageopacity="0.0"
     inkscape:pagecheckerboard="0"
     inkscape:deskcolor="#d1d1d1"
     showgrid="false"
     inkscape:zoom="1.050338"
     inkscape:cx="-52.364096"
     inkscape:cy="69.025399"
     inkscape:window-width="1848"
     inkscape:window-height="1136"
     inkscape:window-x="72"
     inkscape:window-y="27"
     inkscape:window-maximized="1"
     inkscape:current-layer="Layer_1" /><g
     id="g3907"
     transform="matrix(0.09375,0,0,0.09375,8,8)"><circle
       cx="256"
       cy="256"
       fill="#333333"
       r="256"
       id="circle3901" /><g
       id="g3905"><path
         d="m 256,93.9 c -89.5,0 -162.1,72.6 -162.1,162.1 0,70.5 45,130.4 107.8,152.8 0.3,0.1 1.4,0.5 1.7,0.6 0.9,0.3 1.9,0.5 2.9,0.5 5.3,0 9.5,-4.3 9.5,-9.5 0,-0.3 0,-0.5 0,-0.8 v 0 c 0,-8.6 0,-19.5 0,-28.2 -10.3,2.1 -25.9,4.1 -34.4,0 -11,-5.3 -16.6,-12.1 -21.9,-25.5 -6.6,-16.3 -21.8,-20.8 -22.4,-23.6 -0.6,-2.9 16.1,-7.2 24.7,2.7 8.6,9.9 17.3,29.7 35.8,27.8 9.1,-0.9 15,-2.4 18.7,-3.5 0.7,-6.4 2.8,-14.3 8.1,-19.9 -43.5,-7.2 -72.5,-30.6 -72.5,-76.5 0,-20.9 6,-37.1 16.6,-49.2 -1.8,-10 -4.8,-33.2 3.2,-41.3 0,0 11.3,-7 43.7,15.8 12.1,-2.8 25.5,-4.2 39.8,-4.2 v 0 c 0.3,0 0.5,0 0.8,0 0.3,0 0.5,0 0.8,0 v 0 c 14.4,0.1 27.8,1.5 39.8,4.2 32.4,-22.8 43.7,-15.8 43.7,-15.8 8,8.2 5,31.4 3.2,41.3 10.6,12.2 16.6,28.4 16.6,49.2 0,45.9 -28.9,69.3 -72.5,76.5 8.3,8.7 8.6,22.8 8.6,28.6 0,5.5 0,42.3 0,42.5 0,5.3 4.3,9.5 9.5,9.5 0.8,0 1.5,-0.1 2.3,-0.3 0.2,0 0.8,-0.2 1,-0.3 63.5,-22 109.1,-82.3 109.1,-153.3 C 418.1,166.4 345.5,93.9 256,93.9 Z"
         fill="#ffffff"
         id="path3903" /></g></g></svg>
