<?xml version="1.0" encoding="UTF-8" standalone="no"?>
<svg
   width="64"
   height="64"
   viewBox="0 0 64 64"
   fill="none"
   version="1.1"
   id="svg298"
   sodipodi:docname="gmail.svg"
   inkscape:version="1.2 (1:1.2.1+202207142221+cd75a1ee6d)"
   xmlns:inkscape="http://www.inkscape.org/namespaces/inkscape"
   xmlns:sodipodi="http://sodipodi.sourceforge.net/DTD/sodipodi-0.dtd"
   xmlns="http://www.w3.org/2000/svg"
   xmlns:svg="http://www.w3.org/2000/svg">
  <sodipodi:namedview
     id="namedview300"
     pagecolor="#ffffff"
     bordercolor="#666666"
     borderopacity="1.0"
     inkscape:showpageshadow="2"
     inkscape:pageopacity="0.0"
     inkscape:pagecheckerboard="0"
     inkscape:deskcolor="#d1d1d1"
     showgrid="false"
     inkscape:zoom="4.9166667"
     inkscape:cx="3.8644068"
     inkscape:cy="24.101695"
     inkscape:window-width="1848"
     inkscape:window-height="1136"
     inkscape:window-x="72"
     inkscape:window-y="27"
     inkscape:window-maximized="1"
     inkscape:current-layer="svg298" />
  <path
     d="M 8,32 C 8,18.7452 18.7452,8 32,8 45.2548,8 56,18.7452 56,32 56,45.2548 45.2548,56 32,56 18.7452,56 8,45.2548 8,32 Z"
     fill="#ffffff"
     id="path271" />
  <path
     d="M 42.4697,41.23 H 21.5009 c -0.8131,0 -1.4978,-0.6633 -1.4978,-1.4978 V 24.5833 c 0,-0.813 0.6633,-1.4977 1.4978,-1.4977 h 20.9688 c 0.8131,0 1.4978,0.6633 1.4978,1.4977 v 15.1489 c 0,0.8345 -0.6633,1.4978 -1.4978,1.4978 z"
     fill="#e3e3e3"
     id="path273" />
  <path
     opacity="0.1"
     d="m 22.9987,41.23 8.9652,-7.2107 0.0642,-0.3851 -9.2434,-6.6544 -0.0214,13.9293 z"
     fill="#231f20"
     id="path275" />
  <path
     d="m 21.5009,41.23 c -0.8345,0 -1.4978,-0.6633 -1.4978,-1.4978 V 24.5619 c 0,-0.8344 0.6633,-0.9842 1.4978,-0.9842 0.8345,0 1.4978,0.1712 1.4978,0.9842 V 41.23 Z"
     fill="#d54b3d"
     id="path277" />
  <path
     fill-rule="evenodd"
     clip-rule="evenodd"
     d="m 20.0031,24.5619 c 0,-0.813 0.6633,-0.9842 1.4978,-0.9842 0.8345,0 1.4978,0.1498 1.4978,0.9842 V 41.23 h -1.4978 c -0.8345,0 -1.4978,-0.6633 -1.4978,-1.4978 z m 2.7816,0 c 0,-0.4493 -0.214,-0.7702 -1.2838,-0.7702 -1.0698,0 -1.2838,0.2995 -1.2838,0.7702 v 15.1703 c 0,0.7061 0.5777,1.2838 1.2838,1.2838 h 1.2838 z"
     fill="#d72b27"
     id="path279" />
  <path
     d="M 42.4697,41.23 H 40.9719 V 24.5192 c 0,-0.8345 0.6633,-0.9415 1.4978,-0.9415 0.8344,0 1.4977,0.107 1.4977,0.9415 v 15.2344 c 0,0.8131 -0.6633,1.4764 -1.4977,1.4764 z"
     fill="#d54b3d"
     id="path281" />
  <path
     fill-rule="evenodd"
     clip-rule="evenodd"
     d="m 40.9719,24.5192 c 0,-0.8345 0.6633,-0.9415 1.4978,-0.9415 0.8344,0 1.4977,0.107 1.4977,0.9415 v 15.2344 c 0,0.8345 -0.6633,1.4978 -1.4977,1.4978 h -1.4978 z m 2.7816,0 c 0,-0.535 -0.321,-0.7275 -1.2838,-0.7275 -0.9629,0 -1.2838,0.1711 -1.2838,0.7275 v 16.5182 h 1.2838 c 0.7061,0 1.2838,-0.5777 1.2838,-1.2838 z"
     fill="#d72b27"
     id="path283" />
  <path
     d="m 36.0507,41.23 -15.9222,-16.0458 0.8375,0.3406 11.0835,7.981 11.918,-8.7392 v 14.987 c 0,0.8131 -0.6633,1.4764 -1.4978,1.4764 z"
     fill="url(#paint0_linear)"
     id="path285"
     style="fill:url(#paint0_linear)" />
  <path
     d="M 31.9639,34.0193 20.645,25.803 c -0.6633,-0.4921 -0.8558,-1.4336 -0.3637,-2.0969 0.4921,-0.6633 1.455,-0.8131 2.1397,-0.321 l 9.5643,6.954 9.6285,-7.0395 c 0.6633,-0.4922 1.6048,-0.3424 2.0969,0.3423 0.4921,0.6633 0.3423,1.6048 -0.3424,2.0969 z"
     fill="#d54b3d"
     id="path287" />
  <path
     fill-rule="evenodd"
     clip-rule="evenodd"
     d="M 41.5924,23.2782 C 41.8492,23.0856 42.1701,23 42.4697,23 c 0.4707,0 0.92,0.214 1.2196,0.6419 0.4707,0.6847 0.321,1.6048 -0.3423,2.0969 L 31.9639,34.0407 20.645,25.803 c -0.6633,-0.4922 -0.8558,-1.4336 -0.3851,-2.0969 0.2995,-0.4065 0.7703,-0.6205 1.241,-0.6205 0.321,0 0.6419,0.0856 0.8987,0.2781 l 9.5643,6.954 z m 1.9257,0.4707 c -0.2567,-0.3424 -0.6419,-0.5349 -1.0484,-0.5349 -0.2782,0 -0.5349,0.0856 -0.7703,0.2353 l -9.6071,7.0396 -0.1284,0.0855 -0.1284,-0.0855 -9.5429,-6.9326 c -0.214,-0.1712 -0.4921,-0.2567 -0.7703,-0.2567 -0.4279,0 -0.8345,0.2139 -1.0698,0.5349 -0.4066,0.5563 -0.2568,1.3694 0.3209,1.7973 L 31.9639,33.7625 43.24,25.5462 c 0.5563,-0.4279 0.6847,-1.2196 0.2781,-1.7973 z"
     fill="#d72b27"
     id="path289" />
  <defs
     id="defs296">
    <linearGradient
       id="paint0_linear"
       x1="12.1294"
       y1="33.231899"
       x2="35.975201"
       y2="33.231899"
       gradientUnits="userSpaceOnUse"
       gradientTransform="translate(8,8)">
      <stop
         stop-opacity="0.1"
         id="stop291" />
      <stop
         offset="1"
         stop-opacity="0.2"
         id="stop293" />
    </linearGradient>
  </defs>
</svg>
