<?xml version="1.0" encoding="UTF-8" standalone="no"?>
<svg
   width="64"
   height="64"
   viewBox="0 0 64 64"
   fill="none"
   version="1.1"
   id="svg724"
   sodipodi:docname="linkedin.svg"
   inkscape:version="1.2 (1:1.2.1+202207142221+cd75a1ee6d)"
   xmlns:inkscape="http://www.inkscape.org/namespaces/inkscape"
   xmlns:sodipodi="http://sodipodi.sourceforge.net/DTD/sodipodi-0.dtd"
   xmlns="http://www.w3.org/2000/svg"
   xmlns:svg="http://www.w3.org/2000/svg">
  <defs
     id="defs728" />
  <sodipodi:namedview
     id="namedview726"
     pagecolor="#ffffff"
     bordercolor="#666666"
     borderopacity="1.0"
     inkscape:showpageshadow="2"
     inkscape:pageopacity="0.0"
     inkscape:pagecheckerboard="0"
     inkscape:deskcolor="#d1d1d1"
     showgrid="false"
     inkscape:zoom="4.9166667"
     inkscape:cx="3.8644068"
     inkscape:cy="24.101695"
     inkscape:window-width="1848"
     inkscape:window-height="1136"
     inkscape:window-x="72"
     inkscape:window-y="27"
     inkscape:window-maximized="1"
     inkscape:current-layer="svg724" />
  <path
     d="M 8,32 C 8,18.7452 18.7452,8 32,8 45.2548,8 56,18.7452 56,32 56,45.2548 45.2548,56 32,56 18.7452,56 8,45.2548 8,32 Z"
     fill="#0077b5"
     id="path720" />
  <path
     fill-rule="evenodd"
     clip-rule="evenodd"
     d="m 25.3188,22.8227 c 0,1.5691 -1.1811,2.8246 -3.0776,2.8246 H 22.2064 C 20.3805,25.6473 19.2,24.3918 19.2,22.8227 19.2,21.2204 20.4164,20 22.277,20 c 1.8607,0 3.0065,1.2204 3.0418,2.8227 z m -0.3583,5.0551 V 44.2196 H 19.5216 V 27.8778 Z m 19.6147,16.3418 2e-4,-9.3699 c 0,-5.0194 -2.6832,-7.3556 -6.2623,-7.3556 -2.8877,0 -4.1806,1.5861 -4.9024,2.6988 v -2.3146 h -5.4396 c 0.0717,1.5334 0,16.3417 0,16.3417 h 5.4396 v -9.1266 c 0,-0.4884 0.0353,-0.9756 0.1791,-1.3253 0.3931,-0.9757 1.2881,-1.9859 2.7907,-1.9859 1.9689,0 2.756,1.4985 2.756,3.6945 v 8.7429 z"
     fill="#ffffff"
     id="path722" />
</svg>
