<?xml version="1.0" encoding="UTF-8" standalone="no"?>
<svg
   width="64"
   height="64"
   viewBox="0 0 64 64"
   fill="none"
   version="1.1"
   id="svg42"
   sodipodi:docname="QQ.svg"
   inkscape:version="1.2.2 (1:1.2.2+202212051550+b0a8486541)"
   xmlns:inkscape="http://www.inkscape.org/namespaces/inkscape"
   xmlns:sodipodi="http://sodipodi.sourceforge.net/DTD/sodipodi-0.dtd"
   xmlns="http://www.w3.org/2000/svg"
   xmlns:svg="http://www.w3.org/2000/svg">
  <defs
     id="defs46" />
  <sodipodi:namedview
     id="namedview44"
     pagecolor="#ffffff"
     bordercolor="#666666"
     borderopacity="1.0"
     inkscape:showpageshadow="2"
     inkscape:pageopacity="0.0"
     inkscape:pagecheckerboard="0"
     inkscape:deskcolor="#d1d1d1"
     showgrid="false"
     inkscape:zoom="4.9166667"
     inkscape:cx="0.81355932"
     inkscape:cy="24.101695"
     inkscape:window-width="1848"
     inkscape:window-height="1136"
     inkscape:window-x="72"
     inkscape:window-y="27"
     inkscape:window-maximized="1"
     inkscape:current-layer="svg42" />
  <path
     d="M 8,32 C 8,18.7452 18.7452,8 32,8 45.254801,8 56,18.7452 56,32 56,45.2548 45.254801,56 32,56 18.7452,56 8,45.2548 8,32 Z"
     fill="#ffffff"
     id="path2" />
  <path
     d="m 42.5683,45.8736 c -0.184799,1.4608 -2.5688,2.36 -5.3224,2.0104 -2.7528,-0.3512 -4.8352,-1.82 -4.647999,-3.2816 0.1856,-1.4608 2.568799,-2.3608 5.3216,-2.0096 2.7544,0.3504 4.834399,1.82 4.6488,3.2808"
     fill="#e48013"
     id="path4" />
  <path
     d="m 21.7898,45.7325 c 0.2168,1.4648 2.6928,2.4024 5.5336,2.096 2.84,-0.308 4.9656,-1.7448 4.7488,-3.2104 -0.216,-1.464 -2.6952,-2.4024 -5.5344,-2.0944 -2.839999,0.3072 -4.9672,1.744 -4.748,3.2088"
     fill="#e48013"
     id="path6" />
  <path
     d="m 42.321801,26.6872 c 0,5.4592 -4.460001,9.8864 -9.964001,9.8864 -5.500799,0 -9.9616,-4.4272 -9.9616,-9.8864 0,-5.4616 4.4608,-9.88715 9.9616,-9.88715 5.504,0 9.964001,4.42555 9.964001,9.88715"
     fill="#000000"
     id="path8" />
  <path
     d="m 21.702301,45.4411 c 0.216799,1.4648 2.6928,2.4024 5.533599,2.096 2.84,-0.308 4.9656,-1.7448 4.7488,-3.2104 -0.216,-1.464 -2.6952,-2.4024 -5.5344,-2.0944 -2.839999,0.3072 -4.9672,1.744 -4.747999,3.2088"
     fill="#f5a519"
     id="path10" />
  <path
     d="M 42.680801,45.5196 C 42.496,46.9804 40.112,47.8796 37.3584,47.53 c -2.7528,-0.3512 -4.8352,-1.82 -4.648,-3.2816 0.1856,-1.4608 2.5688,-2.3608 5.3216,-2.0096 2.7544,0.3504 4.8344,1.82 4.648801,3.2808"
     fill="#f5a519"
     id="path12" />
  <path
     d="m 41.823801,37.6365 c 0,4.4232 -4.304801,8.0088 -9.612801,8.0088 -5.308,0 -9.611199,-3.5856 -9.611199,-8.0088 0,-4.4232 4.303199,-8.0088 9.611199,-8.0088 5.308,0 9.612801,3.5856 9.612801,8.0088"
     fill="#000000"
     id="path14" />
  <path
     d="m 24.1727,36.045 c -1.411199,2.8168 -3.6248,4.6 -4.2824,4.2504 -0.8696,-0.464 -1.08,-3.3096 0.332,-6.1256 1.413601,-2.8152 3.692001,-4.6192 4.7832,-4.0728 1.0888,0.548 0.5792,3.132 -0.8328,5.948"
     fill="#000000"
     id="path16" />
  <path
     d="m 40.4011,36.3997 c 1.291201,2.5592 3.1512,4.5456 3.946401,4.3704 0.641599,-0.1408 1.1,-3.1336 -0.0752,-6 -1.1944,-2.9144 -3.3608,-5.0072 -4.4528,-4.46 -1.0904,0.5472 -0.8376,3.2776 0.5816,6.0896"
     fill="#000000"
     id="path18" />
  <path
     d="m 25.1601,32.6052 c -0.5936,1.2176 -0.9336,2.6016 -0.9336,4.072 0,4.8544 3.6568,8.7896 8.168,8.7896 4.5112,0 8.1672,-3.9352 8.1672,-8.7896 0,-1.4304 -0.324,-2.7768 -0.8872,-3.9704 -4.1568,2.1192 -11.768,0.5664 -14.5144,-0.1016"
     fill="#ffffff"
     id="path20" />
  <path
     d="m 31.6726,24.4076 c 0,1.3184 -0.8728,2.3872 -1.9504,2.3872 -1.0768,0 -1.9496,-1.0688 -1.9496,-2.3872 0,-1.3184 0.8728,-2.3872 1.9496,-2.3872 1.0776,0 1.9504,1.0688 1.9504,2.3872"
     fill="#ffffff"
     id="path22" />
  <path
     d="m 37.2723,24.4209 c 0,1.3184 -0.8728,2.3872 -1.950399,2.3872 -1.076001,0 -1.9496,-1.0688 -1.9496,-2.3872 0,-1.3184 0.873599,-2.3872 1.9496,-2.3872 1.0776,0 1.950399,1.0688 1.950399,2.3872"
     fill="#ffffff"
     id="path24" />
  <path
     d="m 32.6988,27.4611 c -2.715199,0 -5.0864,0.6344 -6.4024,1.5808 0.3296,0.7768 1.325601,1.3816 2.3024,1.9432 1.18,0.6784 3.1184,1.1376 4.093601,1.1376 0.899999,0 3.128,-0.6064 4.331199,-1.3928 0.8464,-0.552 1.7392,-1.0392 2.064,-1.6976 -1.3184,-0.9408 -3.6824,-1.5712 -6.3888,-1.5712"
     fill="#f5a519"
     id="path26" />
  <path
     d="m 31.3711,24.4209 c 0,0.8344 -0.546399,1.5112 -1.2192,1.5112 -0.6736,0 -1.22,-0.6768 -1.22,-1.5112 0,-0.8344 0.5464,-1.5112 1.22,-1.5112 0.6728,0 1.2192,0.6768 1.2192,1.5112"
     fill="#000000"
     id="path28" />
  <path
     d="m 30.916,24.0771 c 0,0.3368 -0.2288,0.6104 -0.5112,0.6104 -0.2824,0 -0.511199,-0.2736 -0.511199,-0.6104 0,-0.336 0.228799,-0.6088 0.511199,-0.6088 0.2824,0 0.5112,0.2728 0.5112,0.6088"
     fill="#ffffff"
     id="path30" />
  <path
     d="m 34.3679,24.8134 c -0.1144,0 -0.2152,-0.0824 -0.236,-0.1984 -0.0128,-0.0728 -0.0192,-0.1488 -0.0192,-0.2264 0,-0.6384 0.4528,-1.1576 1.0088,-1.1576 0.556,0 1.0088,0.5192 1.0088,1.1576 0,0.056 -0.0032,0.1104 -0.0096,0.164 -0.0168,0.1312 -0.1384,0.224 -0.2688,0.208 -0.1312,-0.0168 -0.224,-0.1368 -0.208,-0.268 0.0048,-0.0336 0.0072,-0.0688 0.0072,-0.104 0,-0.3736 -0.2376,-0.6776 -0.5296,-0.6776 -0.292,0 -0.5296,0.304 -0.5296,0.6776 0,0.0488 0.0048,0.0968 0.0128,0.1424 0.0232,0.1312 -0.064,0.2552 -0.1944,0.2784 -0.0144,0.0024 -0.028,0.004 -0.0424,0.004"
     fill="#000000"
     id="path32" />
  <path
     d="m 27.2574,28.6474 c 0,0 1.4992,1.284 2.8784,1.6672 1.6128,0.448 3.9432,0.2368 4.8264,-0.0592 1.6056,-0.5392 3.312,-1.7008 3.312,-1.7008 0,0 -1.508,1.1536 -3.0632,2.1704 -0.7816,0.5104 -1.637599,1.2376 -3.4392,0.8472 -0.4568,-0.0984 -1.2744,-0.652 -1.5344,-0.8024 -1.3312,-0.7704 -2.668,-1.812 -2.98,-2.1224"
     fill="#8a3322"
     id="path34" />
  <path
     d="m 28.9121,35.4904 v 4.348 c 0,0 -1.7968,0.8504 -3.4064,-0.6856 -0.6168,-0.588 0.3304,-4.7728 0.3304,-4.7728 z"
     fill="#d42e19"
     id="path36" />
  <path
     d="m 25.5926,34.6497 3.2936,2.6376 c 0,0 0.0552,-1.6488 -0.016,-2.1184 -0.072,-0.4688 -3.2776,-0.752 -3.2776,-0.752"
     fill="#b82c22"
     id="path38" />
  <path
     d="m 32.6984,36.2318 c -4.1464,0 -8.0552,-1.4736 -11.1416,-4.1744 -0.0752,-0.0656 -0.052,-0.2752 -0.052,-0.2752 0,0 0.1184,-0.4592 0.3152,-1.5592 0.137601,-0.7688 0.4496,-1.712 0.615201,-1.712 0.1056,0.0872 0.232799,0.2032 0.3584,0.3208 0.226399,0.212 0.445599,0.4304 0.517599,0.4984 2.5552,2.3912 5.8656,3.7016 9.3872,3.7016 3.504,0 6.8256,-1.3104 9.3808,-3.696 0.0208,-0.0192 0.575201,0.6992 0.824001,1.4296 0.2664,0.7824 0.536,1.6336 0.2904,1.828 C 40.2136,34.9502 36.5456,36.2318 32.6984,36.2318"
     fill="#d42e19"
     id="path40" />
</svg>
