<?xml version="1.0" encoding="UTF-8" standalone="no"?>
<svg
   width="64"
   height="64"
   viewBox="0 0 64 64"
   fill="none"
   version="1.1"
   id="svg6"
   sodipodi:docname="twitter.svg"
   inkscape:version="1.2 (1:1.2.1+202207142221+cd75a1ee6d)"
   xmlns:inkscape="http://www.inkscape.org/namespaces/inkscape"
   xmlns:sodipodi="http://sodipodi.sourceforge.net/DTD/sodipodi-0.dtd"
   xmlns="http://www.w3.org/2000/svg"
   xmlns:svg="http://www.w3.org/2000/svg">
  <defs
     id="defs10" />
  <sodipodi:namedview
     id="namedview8"
     pagecolor="#ffffff"
     bordercolor="#666666"
     borderopacity="1.0"
     inkscape:showpageshadow="2"
     inkscape:pageopacity="0.0"
     inkscape:pagecheckerboard="0"
     inkscape:deskcolor="#d1d1d1"
     showgrid="false"
     inkscape:zoom="4.9166667"
     inkscape:cx="3.8644068"
     inkscape:cy="24.101695"
     inkscape:window-width="1848"
     inkscape:window-height="1136"
     inkscape:window-x="72"
     inkscape:window-y="27"
     inkscape:window-maximized="1"
     inkscape:current-layer="svg6" />
  <path
     d="M 8,32 C 8,18.7452 18.7452,8 32,8 45.2548,8 56,18.7452 56,32 56,45.2548 45.2548,56 32,56 18.7452,56 8,45.2548 8,32 Z"
     fill="#55acee"
     id="path2" />
  <path
     d="m 31.2812,27.5075 0.0504,0.8305 -0.8394,-0.1017 c -3.0553,-0.3898 -5.7245,-1.7118 -7.9909,-3.932 l -1.1079,-1.1016 -0.2854,0.8135 c -0.6044,1.8135 -0.2183,3.7286 1.0408,5.0166 0.6715,0.7119 0.5204,0.8136 -0.6379,0.3899 -0.4029,-0.1356 -0.7555,-0.2373 -0.789,-0.1865 -0.1175,0.1187 0.2854,1.6609 0.6043,2.2711 0.4365,0.8474 1.3262,1.6778 2.2999,2.1693 l 0.8226,0.3898 -0.9737,0.017 c -0.9401,0 -0.9737,0.0169 -0.8729,0.3728 0.3357,1.1016 1.6619,2.2711 3.1392,2.7795 l 1.0409,0.3559 -0.9066,0.5423 c -1.343,0.7797 -2.921,1.2203 -4.499,1.2542 C 20.6211,39.4051 20,39.4728 20,39.5237 c 0,0.1695 2.0481,1.1186 3.24,1.4914 3.5757,1.1016 7.823,0.6271 11.0126,-1.2541 2.2663,-1.3389 4.5326,-3.9998 5.5902,-6.5759 0.5708,-1.3728 1.1416,-3.8811 1.1416,-5.0844 0,-0.7796 0.0503,-0.8813 0.9904,-1.8134 0.554,-0.5424 1.0744,-1.1356 1.1752,-1.305 0.1678,-0.322 0.1511,-0.322 -0.7051,-0.0339 -1.4269,0.5084 -1.6284,0.4406 -0.9233,-0.322 0.5204,-0.5424 1.1415,-1.5254 1.1415,-1.8135 0,-0.0508 -0.2518,0.0339 -0.5372,0.1864 -0.3021,0.1695 -0.9736,0.4237 -1.4773,0.5763 l -0.9065,0.2881 -0.8226,-0.5593 c -0.4532,-0.3051 -1.0912,-0.644 -1.4269,-0.7457 -0.8562,-0.2373 -2.1656,-0.2034 -2.9378,0.0678 -2.0985,0.7627 -3.4247,2.7286 -3.2736,4.881 z"
     fill="#ffffff"
     id="path4" />
</svg>
