<?xml version="1.0" encoding="UTF-8" standalone="no"?>
<svg
   width="64"
   height="64"
   viewBox="0 0 64 64"
   fill="none"
   version="1.1"
   id="svg4865"
   sodipodi:docname="wechat.svg"
   inkscape:version="1.2 (1:1.2.1+202207142221+cd75a1ee6d)"
   xmlns:inkscape="http://www.inkscape.org/namespaces/inkscape"
   xmlns:sodipodi="http://sodipodi.sourceforge.net/DTD/sodipodi-0.dtd"
   xmlns="http://www.w3.org/2000/svg"
   xmlns:svg="http://www.w3.org/2000/svg">
  <defs
     id="defs4869" />
  <sodipodi:namedview
     id="namedview4867"
     pagecolor="#ffffff"
     bordercolor="#666666"
     borderopacity="1.0"
     inkscape:showpageshadow="2"
     inkscape:pageopacity="0.0"
     inkscape:pagecheckerboard="0"
     inkscape:deskcolor="#d1d1d1"
     showgrid="false"
     inkscape:zoom="4.9166667"
     inkscape:cx="3.8644068"
     inkscape:cy="24.101695"
     inkscape:window-width="1848"
     inkscape:window-height="1136"
     inkscape:window-x="72"
     inkscape:window-y="27"
     inkscape:window-maximized="1"
     inkscape:current-layer="svg4865" />
  <path
     d="M 8,32 C 8,18.7452 18.7452,8 32,8 45.2548,8 56,18.7452 56,32 56,45.2548 45.2548,56 32,56 18.7452,56 8,45.2548 8,32 Z"
     fill="#45b035"
     id="path4859" />
  <path
     fill-rule="evenodd"
     clip-rule="evenodd"
     d="m 38.7232,27.296 c -0.1592,-0.0088 -0.3192,-0.0104 -0.4808,-0.0104 -5.7472,0 -10.4096,3.9056 -10.4096,8.7256 0,0.7888 0.1288,1.5528 0.3632,2.28 -0.2544,0.0128 -0.5104,0.0232 -0.768,0.0232 -1.2632,0 -2.4808,-0.1712 -3.616,-0.4872 -0.0648,-0.0192 -0.1944,-0.056 -0.1944,-0.056 l -4.1312,2.104 1.104,-3.4584 -0.1048,-0.0664 C 17.7584,34.604 16,31.8528 16,28.7576 16,23.4792 21.116,19.2 27.428,19.2 c 5.7168,0 10.4536,3.5096 11.2952,8.096 z M 23.4512,27.02 c -0.8864,0 -1.6048,-0.6968 -1.6048,-1.5544 0,-0.8584 0.7184,-1.5528 1.6048,-1.5528 0.8864,0 1.6064,0.6944 1.6064,1.5528 0,0.8576 -0.72,1.5544 -1.6064,1.5544 z m 7.9536,-3.1072 c 0.8864,0 1.604,0.6944 1.604,1.5528 0,0.8576 -0.7176,1.5544 -1.604,1.5544 -0.8872,0 -1.604,-0.6968 -1.604,-1.5544 0,-0.8584 0.7168,-1.5528 1.604,-1.5528 z"
     fill="#ffffff"
     id="path4861" />
  <path
     fill-rule="evenodd"
     clip-rule="evenodd"
     d="m 38.3297,44.1425 c -5.3328,0 -9.6568,-3.6152 -9.6568,-8.0752 0,-4.4584 4.324,-8.0736 9.6568,-8.0736 5.3304,0 9.6528,3.6152 9.6528,8.0736 0,2.616 -1.4864,4.94 -3.7896,6.4152 l -0.0888,0.0552 0.9328,2.9232 -3.4888,-1.7792 c 0,0 -0.1096,0.0328 -0.1648,0.0472 -0.9584,0.268 -1.9872,0.4136 -3.0536,0.4136 z M 33.6129,33.2857 c 0,-0.7232 0.608,-1.3112 1.356,-1.3112 0.7496,0 1.3568,0.588 1.3568,1.3112 0,0.7264 -0.6072,1.3152 -1.3568,1.3152 -0.748,0 -1.356,-0.5888 -1.356,-1.3152 z m 6.7192,0 c 0,-0.7232 0.6064,-1.3112 1.3552,-1.3112 0.7496,0 1.356,0.588 1.356,1.3112 0,0.7264 -0.6064,1.3152 -1.356,1.3152 -0.7488,0 -1.3552,-0.5888 -1.3552,-1.3152 z"
     fill="#ffffff"
     id="path4863" />
</svg>
