<?xml version="1.0" encoding="UTF-8" standalone="no"?>
<!-- Created with Inkscape (http://www.inkscape.org/) -->

<svg
   width="48"
   height="48"
   viewBox="0 0 12.7 12.7"
   version="1.1"
   id="svg1609"
   inkscape:version="1.2 (1:1.2.1+202207142221+cd75a1ee6d)"
   sodipodi:docname="xiaohongshu.svg"
   xmlns:inkscape="http://www.inkscape.org/namespaces/inkscape"
   xmlns:sodipodi="http://sodipodi.sourceforge.net/DTD/sodipodi-0.dtd"
   xmlns="http://www.w3.org/2000/svg"
   xmlns:svg="http://www.w3.org/2000/svg">
  <sodipodi:namedview
     id="namedview1611"
     pagecolor="#ffffff"
     bordercolor="#666666"
     borderopacity="1.0"
     inkscape:showpageshadow="2"
     inkscape:pageopacity="0.0"
     inkscape:pagecheckerboard="0"
     inkscape:deskcolor="#d1d1d1"
     inkscape:document-units="mm"
     showgrid="false"
     inkscape:zoom="16.03"
     inkscape:cx="33.718029"
     inkscape:cy="27.542109"
     inkscape:window-width="1848"
     inkscape:window-height="1136"
     inkscape:window-x="72"
     inkscape:window-y="27"
     inkscape:window-maximized="1"
     inkscape:current-layer="svg1609" />
  <defs
     id="defs1606" />
  <circle
     style="fill:#ff2741;fill-opacity:1;stroke-width:0.0169959"
     id="path2145"
     cx="6.3499999"
     cy="6.3499999"
     r="6.3499999" />
  <path
     id="path1023"
     style="display:inline;fill:#ffffff;fill-opacity:1;stroke-width:0.0507603"
     inkscape:highlight-color="#ffffff"
     d="M 5.5205199,4.4445138 C 5.4313809,4.44471 5.3424379,4.4452683 5.2533528,4.4465838 5.0814432,4.8415026 4.9059648,5.2348214 4.7272867,5.6263568 4.6765287,5.7436143 4.6149996,5.8990543 4.7216067,6.005145 4.8581526,6.129001 5.058974,6.081312 5.2264854,6.092478 5.1102386,6.3858733 4.9575462,6.6642691 4.8595783,6.9647734 c -0.054319,0.1482226 0.081225,0.2992329 0.2294434,0.3007568 0.2685242,0.01827 0.5376373,-3.621e-4 0.8066691,0.00672 0.087811,-0.1964336 0.1762224,-0.3921694 0.2625163,-0.5896281 -0.1568508,0 -0.31491,0.011315 -0.469222,-0.019637 C 5.8559855,6.2436955 6.0539149,5.8379886 6.2310709,5.4237821 6.0143215,5.3983988 5.7691297,5.4687751 5.5711628,5.3845081 5.6676081,5.0596382 5.8431477,4.7617868 5.9670043,4.4455473 5.8178947,4.4449223 5.6690845,4.4441866 5.5205199,4.4445138 Z m 4.1325643,5.167e-4 c -0.2385772,0.00255 -0.4729264,0.00306 -0.7069336,0.00413 V 4.713748 H 8.4800292 v 0.7069336 c 0.1558344,0 0.3113113,2.05e-5 0.4666382,0.0031 0.0041,0.2030429 0.0041,0.4076481 0,0.6133993 -0.2334994,0.00458 -0.4677498,-4.594e-4 -0.7012492,0.0031 -0.00308,0.2355298 -0.00255,0.470877 0,0.7059 0.2340073,0.00255 0.4687922,0 0.7027995,0 V 8.2478992 H 9.6510172 V 6.7472156 c 0.3421284,0 0.6841698,-0.00506 1.0262938,0 0.120308,-0.010166 0.257796,0.074216 0.253732,0.2067057 0.0094,0.1873571 0.0094,0.3748798 0,0.5622396 0.0042,0.06321 -0.04484,0.1176284 -0.108004,0.1214396 -0.19543,0.014214 -0.391101,1.179e-4 -0.587044,0.00672 0.08629,0.2030243 0.170237,0.4056602 0.2682,0.6061646 0.322332,-0.016769 0.716009,0.064419 0.961699,-0.2030884 C 11.699398,7.8311542 11.629358,7.489365 11.63901,7.2071358 11.62429,6.9101775 11.696651,6.5745797 11.512403,6.3146838 11.355549,6.0943943 11.073195,6.0345155 10.818388,6.0299467 10.803158,5.6746215 10.887577,5.2588918 10.626152,4.9700631 10.382501,4.6969712 9.9901346,4.6958996 9.6530842,4.7090971 Z m -7.07347,0.045992 c -0.057661,2.186e-4 -0.1155027,5.344e-4 -0.1731161,0.00103 -0.0066,1.0086173 -0.00273,2.018082 -0.00775,3.0272054 0.017,0.069046 -0.037486,0.1348529 -0.1085205,0.1317749 -0.1213181,0.00708 -0.2430103,0.00311 -0.3648356,0.00413 0.081727,0.2030406 0.1701117,0.3988673 0.2614828,0.5953125 0.229438,-0.00757 0.4913613,0.040179 0.6872965,-0.1100708 C 3.05031,8.0094468 3.1066504,7.776447 3.1030964,7.5668038 c 0,-1.0248587 -7.09e-5,-2.0498866 -0.00465,-3.0747477 -0.1728554,-7.435e-4 -0.3458471,-0.00169 -0.5188313,-0.00103 z m 8.6955938,0.2170411 c -0.07133,3.595e-4 -0.142207,0.022495 -0.200505,0.070797 -0.196957,0.1492395 -0.132436,0.4224151 -0.141076,0.6351033 0.131476,0 0.263332,0.00701 0.394808,-0.00465 0.211161,-0.019288 0.370018,-0.2650711 0.285253,-0.4640543 -0.04467,-0.146661 -0.192416,-0.237931 -0.33848,-0.2371948 z m -3.4297654,0.00413 c -0.4684609,5.049e-4 -0.9377476,-1.385e-4 -1.407666,0.00155 v 5.167e-4 0.7064169 h 0.4408 v 2.1187381 c -0.2106576,0.00356 -0.421861,3.38e-5 -0.6325196,0.00258 -0.1091356,0.2344939 -0.2158546,0.4698538 -0.3219441,0.7053833 0.7857761,0.00302 1.5737318,0 2.3574788,0 V 7.5419991 c -0.225885,0 -0.4521077,-3.38e-5 -0.6779948,-0.00258 V 5.4191313 H 8.0459472 V 4.7121977 c -0.066878,1.25e-4 -0.1335816,-7.22e-5 -0.2005046,0 z m 2.080493,0.7027995 c 0.072565,7.978e-4 0.1398314,0.014988 0.1906864,0.06873 0.01928,0.1852769 0.0054,0.3713057 0.0072,0.5581055 H 9.6499836 c -0.00311,-0.2064268 -0.00465,-0.4126555 -0.00465,-0.6190837 0.085663,0.012276 0.1873051,-0.00878 0.2806029,-0.00775 z m -8.0005451,5.167e-4 c -0.2329931,0.0081 -0.4645942,0.00261 -0.695048,0.00465 C 1.1948095,5.8831042 1.1589409,6.3457717 1.1254394,6.8087105 1.1176894,6.9138853 1.094927,7.0173045 1.05826,7.1161853 1.1770399,7.387755 1.2961917,7.658991 1.4230956,7.9280221 1.7073543,7.5478249 1.8127491,7.0690322 1.8421915,6.6035551 1.8670664,6.2076211 1.9111735,5.8119554 1.9253905,5.4155139 Z m 1.8205607,0.00413 c -0.0579,1.09e-4 -0.115774,2.716e-4 -0.1736328,5.168e-4 0.033845,0.4294384 0.067446,0.8586783 0.1012858,1.2877767 0.037059,0.4304519 0.1484027,0.8692958 0.4113444,1.2185303 C 4.2103253,7.6579486 4.3299707,7.386705 4.4487507,7.1141182 4.4102517,7.0150492 4.3860703,6.9110291 4.3774372,6.8050932 4.343937,6.3436766 4.3075509,5.8820986 4.2720173,5.4206816 4.0963853,5.419619 3.921203,5.4193183 3.7459512,5.419648 Z M 4.7681111,7.4882556 C 4.6574519,7.7234473 4.5484525,7.9593393 4.441516,8.1962227 h 0.00155 c 0.359387,0.1060906 0.7399446,0.033426 1.1089762,0.053227 0.1086273,-0.235022 0.2168791,-0.4703889 0.322461,-0.7069336 -0.369031,-0.014216 -0.7444684,0.038632 -1.1063921,-0.054261 z" />
</svg>
