<?xml version="1.0" encoding="UTF-8" standalone="no"?>
<!-- Created with Inkscape (http://www.inkscape.org/) -->

<svg
   width="64"
   height="64"
   viewBox="0 0 16.933333 16.933333"
   version="1.1"
   id="svg1609"
   inkscape:version="1.2 (1:1.2.1+202207142221+cd75a1ee6d)"
   sodipodi:docname="xiaohongshu.svg"
   xmlns:inkscape="http://www.inkscape.org/namespaces/inkscape"
   xmlns:sodipodi="http://sodipodi.sourceforge.net/DTD/sodipodi-0.dtd"
   xmlns="http://www.w3.org/2000/svg"
   xmlns:svg="http://www.w3.org/2000/svg">
  <sodipodi:namedview
     id="namedview1611"
     pagecolor="#ffffff"
     bordercolor="#666666"
     borderopacity="1.0"
     inkscape:showpageshadow="2"
     inkscape:pageopacity="0.0"
     inkscape:pagecheckerboard="0"
     inkscape:deskcolor="#d1d1d1"
     inkscape:document-units="mm"
     showgrid="false"
     inkscape:zoom="16.03"
     inkscape:cx="27.635683"
     inkscape:cy="27.604492"
     inkscape:window-width="1848"
     inkscape:window-height="1136"
     inkscape:window-x="72"
     inkscape:window-y="27"
     inkscape:window-maximized="1"
     inkscape:current-layer="svg1609" />
  <defs
     id="defs1606" />
  <circle
     style="fill:#ff2741;fill-opacity:1;stroke-width:0.0169959"
     id="path2145"
     cx="8.4666662"
     cy="8.4666662"
     r="6.3499999" />
  <path
     id="path1023"
     style="display:inline;fill:#ffffff;fill-opacity:1;stroke-width:0.0507603"
     inkscape:highlight-color="#ffffff"
     d="M 7.6371866,6.5611805 C 7.5480476,6.5613767 7.4591046,6.561935 7.3700195,6.5632505 7.1981099,6.9581693 7.0226315,7.3514881 6.8439534,7.7430235 6.7931954,7.860281 6.7316663,8.015721 6.8382734,8.1218117 6.9748193,8.2456677 7.1756407,8.1979787 7.3431521,8.2091447 7.2269053,8.50254 7.0742129,8.7809358 6.976245,9.0814401 6.921926,9.2296627 7.05747,9.380673 7.2056884,9.3821969 c 0.2685242,0.01827 0.5376373,-3.621e-4 0.8066691,0.00672 0.087811,-0.1964336 0.1762224,-0.3921694 0.2625163,-0.5896281 -0.1568508,0 -0.31491,0.011315 -0.469222,-0.019637 C 7.9726522,8.3603622 8.1705816,7.9546553 8.3477376,7.5404488 8.1309882,7.5150655 7.8857964,7.5854418 7.6878295,7.5011748 7.7842748,7.1763049 7.9598144,6.8784535 8.083671,6.562214 7.9345614,6.561589 7.7857512,6.5608533 7.6371866,6.5611805 Z m 4.1325644,5.167e-4 c -0.238577,0.00255 -0.472927,0.00306 -0.706934,0.00413 v 0.2645875 h -0.466121 v 0.7069336 c 0.155834,0 0.311311,2.05e-5 0.466638,0.0031 0.0041,0.2030429 0.0041,0.4076481 0,0.6133993 -0.233499,0.00458 -0.46775,-4.594e-4 -0.701249,0.0031 -0.0031,0.2355298 -0.0026,0.470877 0,0.7059 0.234007,0.00255 0.468792,0 0.702799,0 v 1.5017184 h 0.7028 V 8.8638823 c 0.342128,0 0.68417,-0.00506 1.026294,0 0.120308,-0.010166 0.257796,0.074216 0.253732,0.2067057 0.0094,0.1873571 0.0094,0.3748798 0,0.5622396 0.0042,0.06321 -0.04484,0.1176284 -0.108004,0.1214396 -0.19543,0.014214 -0.391101,1.179e-4 -0.587044,0.00672 0.08629,0.2030243 0.170237,0.4056598 0.2682,0.6061648 0.322332,-0.01677 0.716009,0.06442 0.961699,-0.203089 C 13.816065,9.9478209 13.746025,9.6060317 13.755677,9.3238025 13.740957,9.0268442 13.813318,8.6912464 13.62907,8.4313505 13.472216,8.211061 13.189862,8.1511822 12.935055,8.1466134 12.919825,7.7912882 13.004244,7.3755585 12.742819,7.0867298 12.499168,6.8136379 12.106801,6.8125663 11.769751,6.8257638 Z m -7.0734701,0.045992 c -0.057661,2.186e-4 -0.1155027,5.344e-4 -0.1731161,0.00103 -0.0066,1.0086173 -0.00273,2.018082 -0.00775,3.0272054 0.017,0.069046 -0.037486,0.1348529 -0.1085205,0.1317749 -0.1213181,0.00708 -0.2430103,0.00311 -0.3648356,0.00413 0.081727,0.2030406 0.1701117,0.3988675 0.2614828,0.5953125 0.229438,-0.0076 0.4913613,0.04018 0.6872965,-0.110071 0.1761387,-0.130958 0.2324791,-0.3639573 0.2289251,-0.5736005 0,-1.0248587 -7.09e-5,-2.0498866 -0.00465,-3.0747477 -0.1728554,-7.435e-4 -0.3458471,-0.00169 -0.5188313,-0.00103 z m 8.6955941,0.2170411 c -0.07133,3.595e-4 -0.142207,0.022495 -0.200505,0.070797 -0.196957,0.1492395 -0.132436,0.4224151 -0.141076,0.6351033 0.131476,0 0.263332,0.00701 0.394808,-0.00465 0.211161,-0.019288 0.370018,-0.2650711 0.285253,-0.4640543 -0.04467,-0.146661 -0.192416,-0.237931 -0.33848,-0.2371948 z m -3.4297657,0.00413 c -0.4684609,5.049e-4 -0.9377476,-1.385e-4 -1.407666,0.00155 v 5.167e-4 0.7064169 h 0.4408 V 9.656082 c -0.2106576,0.00356 -0.421861,3.38e-5 -0.6325196,0.00258 -0.1091356,0.2344939 -0.2158546,0.469854 -0.3219441,0.705383 0.7857761,0.003 1.5737318,0 2.3574784,0 V 9.6586658 c -0.225885,0 -0.4521073,-3.38e-5 -0.6779944,-0.00258 V 7.535798 H 10.162614 V 6.8288644 c -0.06688,1.25e-4 -0.133582,-7.22e-5 -0.2005047,0 z m 2.0804927,0.7027995 c 0.07256,7.978e-4 0.139832,0.014988 0.190687,0.06873 0.01928,0.1852769 0.0054,0.3713057 0.0072,0.5581055 H 11.76665 C 11.76354,7.9520685 11.762,7.7458398 11.762,7.5394116 c 0.08566,0.012276 0.187305,-0.00878 0.280603,-0.00775 z m -8.0005448,5.167e-4 c -0.2329931,0.0081 -0.4645942,0.00261 -0.695048,0.00465 C 3.3114762,7.9997709 3.2756072,8.4624384 3.2421061,8.9253772 3.2343561,9.030552 3.2115941,9.1339712 3.1749271,9.232852 3.2937066,9.5044217 3.4128584,9.7756577 3.5397623,10.044689 3.824021,9.6644916 3.9294158,9.1856989 3.9588582,8.7202218 3.9837331,8.3242878 4.0278402,7.9286221 4.0420572,7.5321806 Z m 1.8205607,0.00413 c -0.0579,1.09e-4 -0.115774,2.716e-4 -0.1736328,5.168e-4 0.033845,0.4294384 0.067446,0.8586783 0.1012858,1.2877767 0.037059,0.4304519 0.1484027,0.8692958 0.4113444,1.21853 C 6.326992,9.7746153 6.4466374,9.5033717 6.5654174,9.2307849 6.5269184,9.1317159 6.502737,9.0276958 6.4941039,8.9217599 6.4606037,8.4603433 6.4242176,7.9987653 6.388684,7.5373483 6.213052,7.5362857 6.0378697,7.535985 5.8626179,7.5363147 Z M 6.8847778,9.6049223 C 6.7741186,9.840114 6.6651192,10.076006 6.5581827,10.312889 h 0.00155 c 0.359387,0.106091 0.7399446,0.03343 1.1089762,0.05323 0.1086273,-0.235022 0.2168791,-0.4703885 0.322461,-0.7069332 -0.369031,-0.014216 -0.7444684,0.038632 -1.1063921,-0.05426 z" />
</svg>
